<?xml version="1.0" encoding="UTF-8" standalone="no"?>
<!DOCTYPE svg PUBLIC "-//W3C//DTD SVG 1.1//EN" "http://www.w3.org/Graphics/SVG/1.1/DTD/svg11.dtd">
<svg width="32" height="32" viewBox="0 0 32 32" fill="none" xmlns="http://www.w3.org/2000/svg">
<rect width="32" height="32" rx="8" fill="#6C5CE7"/>
<path d="M11.696 19.648V17.952L17.424 12.368H20.08L14.48 17.936L20.376 23.936H17.728L11.696 19.648Z" fill="white"/>
<path d="M20.0416 7.936V23.736C20.0416 24.592 19.8482 25.336 19.4613 25.968C19.0882 26.6 018.5563 27.072 17.8655 27.384C17.1747 27.696 16.3699 27.852 15.4508 27.852C14.2029 27.852 13.1154 27.584 12.1883 27.048C11.275 26.512 10.5577 25.776 10.0363 24.84C9.52907 23.904 9.27548 22.816 9.27548 21.576C9.27548 20.32 9.53728 19.224 9.86106 18.288C10.3955 17.352 11.1263 16.624 12.0534 16.104C12.9805 15.568 14.0599 15.3 15.2914 15.3C16.2695 15.3 17.1258 15.448 17.8655 15.744C18.6052 16.04 19.2134 16.504 19.6897 17.136C20.166 17.752 20.436 18.54 20.5001 19.5H20.0416Z" fill="white"/>
</svg>
